<svg version="1.1" id="Layer_1" xmlns="http://www.w3.org/2000/svg" xmlns:xlink="http://www.w3.org/1999/xlink" x="0px" y="0px"
	 width="100%" viewBox="0 0 944 752" enable-background="new 0 0 944 752" xml:space="preserve">
<path fill="#000000" opacity="1.000000" stroke="none" 
	d="
M489.453735,351.191589 
	C484.884186,348.780609 479.830872,349.159210 475.711273,346.570038 
	C474.602295,345.873077 471.950317,346.147247 471.561096,347.298645 
	C469.890961,352.238800 466.800873,349.653442 463.741638,349.567993 
	C457.844360,349.403229 452.175507,352.174957 446.147339,351.621887 
	C444.052887,357.489563 435.226593,354.162598 433.616669,360.762695 
	C433.551453,361.029968 432.746582,361.274323 432.292267,361.264099 
	C428.887604,361.187714 426.218933,361.487732 425.721375,366.045105 
	C425.585388,367.290588 422.095978,368.649292 419.967651,369.082825 
	C416.958221,369.695831 416.223724,371.251373 416.363464,373.964935 
	C416.541107,377.415070 414.743530,379.258484 411.299652,379.219177 
	C407.044739,379.170654 404.986938,381.616119 406.866730,385.402924 
	C408.092957,387.873230 408.570740,390.374054 409.125946,392.943970 
	C409.266235,393.593170 409.269135,394.676910 409.624054,394.814270 
	C415.117340,396.939514 415.858398,401.936920 417.684906,406.643982 
	C418.525177,408.809479 419.229187,410.756683 419.377380,413.042603 
	C419.811066,419.732697 417.400299,427.001251 421.506439,432.948181 
	C425.088196,438.135681 424.183411,443.529083 424.326599,448.991241 
	C424.469849,454.455536 426.694794,459.235687 428.448578,464.290436 
	C430.132141,469.142731 431.048828,474.835510 427.498016,479.854736 
	C426.578125,481.155029 426.214081,482.835297 425.481720,484.283905 
	C422.447266,490.286224 416.070282,490.209412 410.942444,492.633240 
	C404.249390,495.796967 396.832245,494.085205 390.267792,496.996979 
	C389.261749,497.443237 387.978790,497.272736 386.822540,497.371521 
	C383.494629,497.655853 379.809326,496.366150 377.251770,499.969025 
	C376.813416,500.586548 375.042969,500.345184 373.887054,500.351501 
	C369.055054,500.377869 364.210083,500.122986 359.393616,500.393524 
	C353.070465,500.748688 346.999481,500.309235 341.695496,496.461578 
	C340.022308,495.247833 338.173035,495.111694 336.458557,495.458832 
	C329.530396,496.861603 322.259155,497.599182 316.080109,501.011566 
	C313.718384,502.315826 311.281708,505.754639 311.354187,509.521545 
	C311.385864,511.167542 311.359497,512.814636 311.359497,515.203308 
	C304.419952,513.953613 302.687683,518.406067 301.091187,523.580261 
	C300.304443,526.130127 296.427185,525.854309 294.834900,528.392395 
	C293.814850,530.018433 292.270935,531.399292 291.503265,533.228760 
	C289.665466,537.608459 285.879730,539.823120 281.754303,538.130554 
	C278.556152,536.818420 278.079773,533.144165 277.867432,530.306458 
	C277.580750,526.474670 276.526093,522.336914 279.121643,518.686951 
	C279.877991,517.623291 279.264130,516.543152 278.686127,515.445679 
	C276.707855,511.689148 277.902679,507.637604 277.816071,503.706940 
	C277.796692,502.827972 278.284668,502.167267 279.192535,501.852295 
	C284.026093,500.175446 284.185974,495.739685 284.537598,491.852356 
	C285.017059,486.552338 284.835571,481.185181 284.786224,475.848175 
	C284.765076,473.561707 286.842529,472.689789 287.943237,472.532715 
	C293.843536,471.690491 298.883148,467.176086 305.292328,468.574890 
	C307.008270,468.949402 309.128632,468.239868 309.608856,470.840668 
	C309.896027,472.396057 310.895538,471.718750 311.854462,471.706604 
	C318.185181,471.626495 324.518921,471.566406 330.848450,471.679901 
	C335.616028,471.765350 339.611664,469.228546 343.312531,467.133362 
	C349.385223,463.695312 349.186798,462.948120 350.870056,458.889771 
	C354.107239,464.949005 357.961609,465.002777 363.105408,461.161407 
	C364.861542,459.849945 368.275757,460.720856 370.933868,460.663940 
	C375.096619,460.574768 379.284973,460.797272 383.415253,460.398468 
	C386.081238,460.141052 388.041962,459.015747 385.188171,455.904755 
	C381.426178,451.803680 379.322510,446.590027 377.942413,441.380219 
	C377.229462,438.689117 376.489716,436.381409 374.491699,434.670319 
	C371.236237,431.882294 373.373627,427.343048 370.191986,423.981384 
	C366.956360,420.562653 365.012604,415.329712 361.465454,412.225891 
	C354.846161,406.433868 353.245087,397.538788 347.248413,391.525360 
	C346.591553,390.866638 346.701324,389.313660 346.682587,388.171753 
	C346.617004,384.173706 346.199921,380.111511 346.744202,376.188507 
	C347.765198,368.829315 344.138672,362.652344 342.321594,356.024323 
	C341.235077,352.061188 340.720825,347.683136 342.119965,344.285828 
	C343.657440,340.552551 342.386780,335.717834 347.504089,333.046844 
	C341.826935,330.720764 342.073029,325.279999 338.925293,321.959259 
	C337.127808,320.062958 342.067596,313.453552 345.979950,312.807343 
	C348.782806,312.344330 349.675140,311.139343 349.622070,308.567932 
	C349.595154,307.264954 349.338196,305.644806 350.523682,304.812286 
	C355.596375,301.249847 354.353638,295.222290 356.184448,290.420685 
	C357.158600,287.865906 355.121735,284.943085 353.698792,283.324646 
	C351.728729,281.083893 351.597748,278.970245 351.675079,276.549255 
	C351.779297,273.285858 350.315063,271.934875 347.133789,272.281738 
	C340.614594,272.992554 333.853699,270.886383 327.533386,274.184326 
	C325.143402,275.431427 323.403870,272.390411 320.656219,272.558594 
	C319.369751,278.092285 314.638489,278.008881 310.239929,279.835144 
	C302.650696,282.986206 292.615753,279.669159 287.517395,285.946381 
	C283.392059,291.025604 279.005066,289.224365 274.842041,290.786835 
	C272.637115,291.614410 270.567352,292.337097 268.204071,292.455750 
	C264.324982,292.650482 263.616058,297.099152 263.112000,298.840485 
	C260.868896,306.590210 254.657364,308.260162 248.486847,310.177704 
	C246.470688,310.804230 244.649490,310.915161 244.203033,313.444000 
	C243.906403,315.124176 242.462692,315.226471 241.065475,315.190002 
	C239.708786,315.154572 239.147537,314.403351 238.649628,313.152069 
	C236.337830,307.342224 235.392715,301.172577 233.768143,295.184906 
	C233.568420,294.448730 233.633194,293.262299 234.093948,292.783417 
	C239.246948,287.427734 242.921295,279.690308 252.596954,281.594330 
	C255.908646,282.246002 259.232269,281.886658 261.134857,278.223755 
	C262.464172,275.664581 265.561340,276.934265 267.692657,275.297852 
	C272.857086,271.332611 278.118011,266.859192 283.871582,264.409027 
	C290.047577,261.778992 296.140869,259.121490 302.121307,256.047485 
	C304.129883,255.015076 307.032135,255.635956 309.524780,255.654373 
	C312.085510,255.673294 313.547974,254.876831 313.694977,251.985611 
	C313.929626,247.369888 316.443573,244.954330 321.185822,245.698303 
	C328.087402,246.781006 334.363342,243.056885 341.233093,243.302628 
	C343.560242,243.385895 346.270416,241.228333 348.497803,239.931168 
	C353.162720,237.214478 358.565002,237.270752 363.016174,235.293823 
	C371.896545,231.349747 381.505188,233.856186 390.234833,230.559937 
	C391.212067,230.190933 391.989502,229.747345 392.650787,228.941864 
	C394.001373,227.296829 394.972534,227.498489 396.619171,229.073792 
	C400.728363,233.005005 404.948761,233.503952 408.007111,231.008835 
	C411.351562,228.280273 411.701660,223.315842 408.885162,218.366119 
	C408.645477,217.944901 408.165253,217.606125 408.066376,217.168182 
	C407.485291,214.594406 414.399261,201.446487 416.946655,199.833405 
	C423.530182,195.664658 430.599274,193.592651 438.405975,194.690933 
	C445.770538,195.727005 452.407349,199.105133 454.780975,206.042404 
	C456.287781,210.446381 457.085785,216.259003 453.342957,221.161667 
	C451.399536,223.707306 451.458710,227.339584 453.398285,230.057678 
	C456.373779,234.227402 456.218842,238.024200 453.297150,241.998672 
	C451.543457,244.384308 451.528595,247.792206 452.575653,249.627182 
	C454.834167,253.585327 453.396515,259.618042 460.639587,261.289124 
	C464.506683,262.181335 468.998871,264.649750 473.014618,266.653259 
	C479.430389,269.854126 485.762238,274.911835 493.878876,273.661743 
	C498.528259,272.945679 501.321716,276.643646 502.574127,279.561401 
	C504.103546,283.124481 506.352692,286.271149 507.744598,289.863953 
	C509.078949,293.308319 508.922668,296.815186 506.107849,298.950897 
	C503.672913,300.798309 500.949890,303.510651 496.905365,301.061798 
	C494.005219,299.305847 490.373138,300.562927 487.074341,300.366608 
	C485.066284,300.247131 483.017517,300.498199 482.518250,297.692657 
	C482.144989,295.595154 480.395142,295.400818 478.638367,295.398590 
	C475.472473,295.394592 472.305054,295.307251 469.141052,295.378693 
	C465.725464,295.455811 463.186951,294.954102 466.135620,289.826813 
	C459.272644,292.213287 454.532593,288.474792 449.355011,286.855255 
	C443.955994,285.166412 440.074158,285.929962 438.174133,291.034851 
	C436.543732,295.415466 432.830048,298.106903 430.852173,302.215393 
	C429.389465,305.253754 429.108856,307.904358 429.983765,310.659515 
	C430.923950,313.620148 433.915222,312.643341 436.079285,312.568726 
	C438.876160,312.472321 441.923309,313.603119 444.220917,310.318329 
	C445.264282,308.826691 447.840363,309.069702 449.375580,311.049225 
	C451.177094,313.372070 453.503204,312.994690 455.628601,311.802032 
	C461.902710,308.281342 467.763000,308.166382 474.347961,311.746582 
	C477.000153,313.188538 480.662903,314.232361 484.655212,313.413361 
	C491.036407,312.104401 497.758789,311.431702 504.160889,314.135101 
	C504.466827,314.264282 504.818665,314.517700 505.092133,314.456879 
	C512.524841,312.803436 518.738647,318.258820 526.123047,317.900848 
	C531.070923,317.661041 535.092407,321.592468 539.353760,323.986084 
	C540.106506,324.408905 540.584106,325.626587 541.669434,325.556854 
	C547.976685,325.151550 553.770996,328.895935 560.207336,327.731171 
	C562.238037,327.363678 564.231689,327.484650 565.973389,329.587799 
	C567.414185,331.327576 569.811279,331.213379 571.584534,329.135712 
	C574.339966,325.907349 577.372070,324.388458 581.490662,327.146820 
	C583.005005,328.160980 585.318787,328.213196 586.753906,327.079742 
	C590.265442,324.306274 593.383911,325.852844 595.564941,328.273132 
	C597.448425,330.363251 599.400391,330.253204 601.642273,330.732269 
	C607.265930,331.934021 612.867737,332.931732 618.646301,333.006226 
	C621.574036,333.043945 624.215637,334.173157 626.956116,335.467133 
	C630.467224,337.124908 631.450195,339.332123 631.354614,342.829163 
	C631.283447,345.434082 630.131042,346.527039 627.682007,346.298096 
	C624.486389,345.999298 622.303345,347.218140 619.901794,349.483582 
	C617.198059,352.034119 612.847900,352.534607 610.380615,355.813202 
	C610.141174,356.131287 609.075989,356.064819 608.505920,355.862274 
	C596.069336,351.443268 586.666504,356.749542 578.664734,365.556152 
	C576.367554,368.084351 573.196472,367.248718 570.736816,369.022430 
	C569.428589,369.965729 567.649841,370.630737 566.115112,372.020050 
	C563.402161,369.288513 559.219788,367.953369 559.315552,363.015900 
	C559.341187,361.693237 557.756897,361.616760 556.632812,361.249359 
	C553.866516,360.345276 551.514832,359.087372 551.536499,355.484131 
	C551.554443,352.502167 549.266907,351.510559 546.756470,351.487823 
	C536.260193,351.392700 525.713440,350.840698 515.288879,351.705688 
	C510.847107,352.074219 506.234711,356.347595 501.814209,353.779877 
	C497.834290,351.468140 493.958191,351.568756 489.453735,351.191589 
z"/>
<path fill="#000000" opacity="1.000000" stroke="none" 
	d="
M752.056580,462.797119 
	C775.115601,453.615143 798.732422,465.252594 803.637451,488.661621 
	C809.219727,515.303162 788.110840,533.241394 768.420471,533.565735 
	C751.382751,533.846313 734.633728,522.094421 731.243530,504.340973 
	C727.917053,486.921417 735.227478,470.856262 752.056580,462.797119 
M782.540527,500.699860 
	C782.605164,498.705139 782.793518,496.705322 782.711731,494.716644 
	C782.441895,488.151611 777.471680,482.335205 771.354797,481.293671 
	C763.638245,479.979767 757.517822,483.192841 754.740417,490.015961 
	C751.286560,498.500946 755.006592,508.087555 763.013733,511.336487 
	C770.966003,514.563110 778.277893,510.833160 782.540527,500.699860 
z"/>
<path fill="#000000" opacity="1.000000" stroke="none" 
	d="
M563.085754,482.353271 
	C571.591980,465.834747 588.338318,457.514893 604.600769,461.464233 
	C620.337830,465.286041 632.610168,477.979340 632.637329,491.070496 
	C626.607910,491.468445 620.522644,491.877380 614.436096,492.267700 
	C612.404297,492.398010 611.653137,490.921997 610.757080,489.449371 
	C606.270142,482.075195 600.286438,479.434174 593.203003,481.589996 
	C586.962524,483.489258 582.910278,489.761658 583.137451,497.170013 
	C583.370544,504.769348 587.942749,510.374512 595.345398,512.136047 
	C601.703674,513.649048 609.270142,509.146332 611.467041,501.831909 
	C612.608765,498.030579 614.502686,496.757324 618.202026,496.940918 
	C622.186707,497.138672 626.189270,496.941071 630.181274,497.035706 
	C632.944214,497.101227 634.404968,498.226501 634.023438,501.421051 
	C631.635986,521.412231 615.763306,535.215881 596.351379,534.943054 
	C575.636963,534.651855 559.788696,518.082703 559.748108,497.714203 
	C559.737671,492.489075 560.970093,487.515991 563.085754,482.353271 
z"/>
<path fill="#000000" opacity="1.000000" stroke="none" 
	d="
M692.488647,507.581482 
	C696.060852,515.438049 699.476929,522.951965 703.209534,531.162292 
	C694.894043,532.664001 687.491394,532.090454 680.126221,531.727173 
	C678.020630,531.623352 677.478577,529.389709 676.783264,527.726746 
	C673.895630,520.820190 671.110535,513.870422 668.181213,506.981842 
	C667.366638,505.066345 666.911011,502.876434 664.246216,500.864136 
	C664.246216,509.280212 664.242798,517.010498 664.247131,524.740784 
	C664.251221,531.904358 664.104797,532.064270 657.052551,532.067322 
	C653.390137,532.068909 649.727783,532.025696 646.065369,532.030823 
	C643.331299,532.034668 641.685608,531.099670 641.692749,527.974976 
	C641.740417,507.165619 641.729248,486.356018 641.679871,465.546661 
	C641.673340,462.769196 642.893616,461.664185 645.594299,461.704041 
	C650.254456,461.772797 654.921021,461.836121 659.576355,461.667053 
	C663.043274,461.541138 664.355591,463.008240 664.273376,466.397217 
	C664.140198,471.887573 664.200439,477.384155 664.271484,482.876923 
	C664.292114,484.471527 663.794800,486.193878 665.235229,488.032684 
	C668.611267,484.620697 670.342712,480.303497 672.596863,476.399200 
	C681.434814,461.091614 681.372192,461.051453 699.119263,461.709595 
	C700.091248,461.745636 701.057434,461.936371 701.922241,462.042389 
	C703.003845,464.350464 701.425049,465.723206 700.575562,467.228821 
	C696.651428,474.184692 692.800659,481.189087 688.625549,487.993225 
	C686.492920,491.468658 686.081848,494.547058 688.178650,498.167206 
	C689.837952,501.031982 690.967590,504.203522 692.488647,507.581482 
z"/>
<path fill="#000000" opacity="1.000000" stroke="none" 
	d="
M463.692688,497.999939 
	C463.693298,487.342834 463.846741,477.182404 463.621338,467.030334 
	C463.528290,462.837982 465.083832,461.365173 469.147125,461.656097 
	C472.626038,461.905182 476.155151,461.934692 479.628845,461.652252 
	C483.911041,461.304047 485.628326,462.740723 485.418121,467.247772 
	C485.093506,474.208527 485.332611,481.195557 485.332611,488.784973 
	C487.939972,487.605927 488.893005,485.773224 489.894775,484.009186 
	C493.264587,478.075348 496.688354,472.170410 499.944397,466.174530 
	C501.291290,463.694275 503.055450,462.587769 505.923431,462.665039 
	C511.664764,462.819672 517.413208,462.710938 522.878235,462.710938 
	C523.781494,465.437500 522.419373,466.694641 521.633362,468.086853 
	C517.705811,475.043854 513.986206,482.139862 509.658630,488.841614 
	C506.921570,493.080170 507.279816,496.607513 509.435608,500.851593 
	C513.805115,509.453674 517.764343,518.264832 521.849304,527.010010 
	C522.536926,528.482056 523.619080,529.873840 523.151978,532.280579 
	C516.159790,533.670898 508.921875,533.115051 501.736633,532.625183 
	C499.504303,532.472900 499.082550,529.878418 498.306824,528.073486 
	C494.641418,519.544861 491.000885,511.005615 487.008392,501.667725 
	C485.177368,504.484497 485.357025,506.759064 485.345795,508.960327 
	C485.314331,515.120972 485.223602,521.284363 485.368225,527.441711 
	C485.442352,530.598145 484.294128,532.072510 481.060974,531.999268 
	C476.900635,531.905029 472.733276,531.879944 468.574982,532.013245 
	C464.960083,532.129089 463.571472,530.653687 463.640076,526.972046 
	C463.816956,517.484253 463.695251,507.990997 463.692688,497.999939 
z"/>
<path fill="#000000" opacity="1.000000" stroke="none" 
	d="
M642.843384,311.274628 
	C625.783752,310.950958 614.759033,301.105988 611.951538,284.096588 
	C610.021362,272.402161 618.836182,258.548889 631.131836,253.953308 
	C647.041260,248.007050 664.415100,256.449768 669.572449,272.633301 
	C674.724060,288.798828 665.483826,305.825378 649.160889,310.164612 
	C647.242493,310.674591 645.250183,310.906403 642.843384,311.274628 
z"/>
<path fill="#000000" opacity="1.000000" stroke="none" 
	d="
M889.994995,502.116516 
	C889.982239,504.756958 889.960876,506.922668 889.948853,509.088440 
	C889.935486,511.482452 889.439880,513.411987 886.407104,513.370056 
	C883.975525,513.336426 883.364868,514.954102 883.366516,517.032532 
	C883.369324,520.531494 883.241211,524.034668 883.377197,527.528015 
	C883.488525,530.386902 882.527161,531.977722 879.466553,531.944763 
	C874.635864,531.892761 869.804382,531.915588 864.973328,531.889221 
	C862.287659,531.874512 861.106567,530.489868 861.111023,527.816711 
	C861.134094,513.988037 860.660950,500.141205 861.224792,486.335999 
	C861.770447,472.974243 871.211365,462.675964 883.974609,460.047363 
	C892.451416,458.301514 904.788574,463.515625 910.053101,471.474548 
	C904.323242,475.570862 898.569092,479.684570 893.054871,483.626740 
	C890.147949,482.825378 888.678406,478.438232 885.347595,481.653870 
	C882.048035,484.839386 883.520081,488.788879 883.713623,492.501984 
	C883.736877,492.948425 884.602783,493.703003 885.097412,493.719025 
	C890.782654,493.903381 889.942627,498.033691 889.994995,502.116516 
z"/>
<path fill="#000000" opacity="1.000000" stroke="none" 
	d="
M833.272766,525.823975 
	C833.764221,530.318726 832.072693,532.167908 827.937744,532.008423 
	C823.614990,531.841553 819.282043,531.934265 814.953552,531.923950 
	C812.078064,531.917114 810.771973,530.563599 810.784607,527.616882 
	C810.844604,513.632324 810.501160,499.638000 810.918823,485.665619 
	C811.246155,474.713287 819.539917,464.327789 829.398315,461.185974 
	C840.162292,457.755524 851.988586,461.466339 859.901306,471.342255 
	C854.406189,475.259552 848.961121,479.209290 843.433777,483.040192 
	C841.771667,484.192139 840.698730,482.688751 839.599670,481.710938 
	C837.929932,480.225342 836.388733,480.317841 834.815186,481.938690 
	C831.658752,485.190063 832.904663,492.403198 836.981567,494.218719 
	C839.357239,495.276703 840.801819,512.104431 838.397095,512.535950 
	C830.568909,513.940552 834.006653,519.700195 833.282349,523.857300 
	C833.197998,524.341919 833.272400,524.854248 833.272766,525.823975 
z"/>
<path fill="#000000" opacity="1.000000" stroke="none" 
	d="
M552.266052,509.000031 
	C552.253296,515.323792 552.102661,521.151672 552.275818,526.969910 
	C552.386353,530.685852 550.699463,532.135864 547.220459,532.034058 
	C547.054382,532.029236 546.887695,532.045715 546.721436,532.042969 
	C526.159973,531.703918 530.101379,534.825867 529.806763,515.932129 
	C529.565491,500.461090 529.747681,484.983368 529.752625,469.508636 
	C529.755188,461.704895 529.765808,461.703583 537.790405,461.695770 
	C540.785522,461.692871 543.796021,461.890259 546.772034,461.652679 
	C550.870911,461.325470 552.359924,462.917694 552.308167,467.068634 
	C552.136108,480.877136 552.256836,494.689301 552.266052,509.000031 
z"/>
</svg>