<svg version="1.1" id="Layer_1" xmlns="http://www.w3.org/2000/svg" xmlns:xlink="http://www.w3.org/1999/xlink" x="0px" y="0px"
	 width="100%" viewBox="0 0 757 756" enable-background="new 0 0 757 756" xml:space="preserve">
<path fill="#A8373A" opacity="1.000000" stroke="none" 
	d="
M758.000000,146.000000 
	C758.000000,301.024078 758.000000,456.048187 757.612915,611.726562 
	C756.819214,616.626587 756.460022,620.877441 755.997620,625.117065 
	C754.362732,640.104431 749.871094,654.322876 743.504333,667.872070 
	C733.703308,688.729736 720.031006,706.649170 702.170715,721.443115 
	C684.752808,735.870728 665.455078,746.431091 643.509460,751.976074 
	C636.058838,753.858643 628.506104,755.336914 621.000000,757.000000 
	C460.309265,757.000000 299.618500,757.000000 138.282852,756.618774 
	C124.380020,755.327148 111.802841,751.664429 99.430359,747.019836 
	C78.768257,739.263306 60.816044,727.121521 45.491894,711.588806 
	C36.864090,702.843628 29.694931,692.472229 22.892662,682.158020 
	C13.254513,667.543762 7.427364,651.184875 4.013683,634.013306 
	C2.890946,628.365662 1.998011,622.672424 1.000000,617.000000 
	C1.000000,458.642578 1.000000,300.285187 1.383783,141.278793 
	C2.799175,121.651756 8.419299,103.868011 16.638327,86.954979 
	C26.600370,66.455185 40.984894,49.341469 58.586678,34.886299 
	C76.345940,20.301804 96.493317,10.535515 118.730751,5.053586 
	C125.414101,3.406018 132.239609,2.335091 139.000000,1.000000 
	C299.024078,1.000000 459.048187,1.000000 619.713379,1.378799 
	C625.018005,2.495277 629.718628,3.052334 634.339417,3.998963 
	C674.212891,12.167651 705.801025,33.281101 729.442688,66.109573 
	C743.976440,86.290886 753.132141,108.852875 756.064087,133.745316 
	C756.547546,137.849274 757.346741,141.916031 758.000000,146.000000 
M467.359100,529.822754 
	C467.280975,518.630615 467.202850,507.438538 467.837372,496.146606 
	C468.838989,497.959320 470.017181,499.698120 470.812225,501.597321 
	C474.596497,510.637604 478.217590,519.746643 482.060516,528.761414 
	C482.604309,530.037109 484.012146,531.812134 485.081024,531.855591 
	C491.977692,532.135803 498.891296,531.998901 506.508881,531.998901 
	C500.986755,520.496887 495.944214,509.696350 490.600891,499.046753 
	C489.013947,495.883911 488.996948,493.489136 490.882355,490.382751 
	C496.197021,481.626129 501.102631,472.621246 506.571777,463.006989 
	C499.456207,463.006989 493.184113,462.881317 486.926819,463.128693 
	C485.863708,463.170715 484.540710,464.625305 483.886719,465.747253 
	C479.280334,473.650024 474.863159,481.663025 470.262085,489.569000 
	C469.535919,490.816742 468.186157,491.701538 467.360352,491.874664 
	C467.279572,482.688141 467.198822,473.501587 467.351471,464.096252 
	C467.463623,463.705200 467.344604,463.474792 466.116516,463.057343 
	C459.849792,463.057343 453.583069,463.057343 447.262207,463.057343 
	C447.262207,486.261017 447.262207,509.038055 447.262207,531.596741 
	C454.104309,531.596741 460.548035,531.596741 467.297699,531.527466 
	C467.454620,531.191284 467.394775,530.913391 467.359100,529.822754 
M287.116516,463.057343 
	C280.849792,463.057343 274.583069,463.057343 268.262207,463.057343 
	C268.262207,486.261017 268.262207,509.038055 268.262207,531.596741 
	C275.104309,531.596741 281.548035,531.596741 288.297699,531.527466 
	C288.454620,531.191284 288.394775,530.913391 288.359100,529.822754 
	C288.280975,518.630676 288.202850,507.438538 288.837372,496.146606 
	C289.838989,497.959320 291.017181,499.698120 291.812195,501.597321 
	C295.596497,510.637604 299.217590,519.746582 303.060516,528.761414 
	C303.604309,530.037109 305.012146,531.812134 306.081024,531.855591 
	C312.977692,532.135803 319.891296,531.998901 327.508881,531.998901 
	C321.986755,520.496887 316.944244,509.696350 311.600922,499.046722 
	C310.013977,495.883881 309.997009,493.489166 311.882385,490.382751 
	C317.197083,481.626190 322.102661,472.621277 327.571808,463.006989 
	C320.456207,463.006989 314.184113,462.881317 307.926788,463.128662 
	C306.863678,463.170685 305.540680,464.625244 304.886719,465.747223 
	C300.280365,473.650024 295.863159,481.663025 291.262085,489.569000 
	C290.535919,490.816742 289.186127,491.701538 288.360321,491.874664 
	C288.279572,482.688141 288.198792,473.501587 288.351471,464.096252 
	C288.463623,463.705200 288.344604,463.474792 287.116516,463.057343 
M290.101044,314.071136 
	C288.092804,313.722900 285.501862,314.041687 284.190308,312.895966 
	C280.835388,309.965240 274.233459,310.171600 272.408752,313.082672 
	C270.838318,312.589630 268.799927,311.386139 268.251953,311.870117 
	C264.973877,314.765350 264.234772,314.695953 260.777588,311.867126 
	C259.917236,311.163147 257.608765,312.059082 256.032898,312.474030 
	C255.290985,312.669342 254.720306,313.902130 254.050476,313.921570 
	C249.451401,314.055054 244.846619,313.991638 239.935684,313.991638 
	C240.612473,309.727173 238.922836,306.229492 242.703705,302.596344 
	C246.705078,298.751282 248.672501,292.857391 251.882141,288.096893 
	C254.052032,284.878571 258.099396,284.980011 260.583832,286.585571 
	C265.554565,289.797913 270.485626,291.822571 276.435852,291.041748 
	C277.231445,290.937378 278.096588,291.363556 278.012207,291.345276 
	C276.714966,291.887665 275.254517,292.498291 273.794067,293.108948 
	C274.608521,294.079590 275.422943,295.050262 276.237396,296.020905 
	C282.020111,296.020905 287.802795,296.020905 293.564697,296.020905 
	C293.929565,297.928101 294.220947,299.451050 294.517242,300.999817 
	C298.205902,300.999817 301.540344,300.914673 304.866730,301.041229 
	C306.219482,301.092682 308.519684,301.288849 308.738617,301.958588 
	C309.998932,305.814178 310.824707,304.321625 312.133301,302.045288 
	C312.483002,301.436951 313.696167,301.095612 314.539703,301.040314 
	C318.145325,300.804047 319.133331,298.593842 318.996277,295.453247 
	C318.699585,288.652924 313.800751,283.896942 311.136292,278.153595 
	C310.635345,277.073761 308.550049,276.059875 307.259064,276.132965 
	C302.048798,276.427887 297.220184,275.769714 292.618805,273.046143 
	C289.264496,271.060699 285.653961,269.458130 282.038147,267.976501 
	C276.839478,265.846313 271.532166,263.981232 266.614624,262.132141 
	C265.993378,259.789825 265.752502,257.200806 264.607330,255.106186 
	C263.722412,253.487549 261.914429,243.916748 263.442505,243.393005 
	C269.668457,241.259094 264.312378,240.371429 263.120514,239.019760 
	C265.453796,237.254517 268.048492,236.324692 264.227722,232.603439 
	C262.389374,230.812988 263.534851,225.704041 263.797546,222.132294 
	C263.908173,220.628128 265.995636,219.138947 265.863556,217.770447 
	C265.359497,212.547516 264.317566,207.376495 263.640747,203.199478 
	C260.864258,201.939392 259.403107,201.181992 257.874664,200.602005 
	C254.583328,199.353043 251.306595,198.027328 247.934143,197.039322 
	C242.755051,195.522034 238.175705,198.100937 233.921997,200.226349 
	C228.111526,203.129593 221.167526,205.782730 222.902420,214.760269 
	C223.023941,215.389099 221.767227,216.238525 221.252838,217.049683 
	C220.802414,217.759918 220.494843,218.560760 220.124176,219.321579 
	C225.400009,221.224274 222.558838,225.667099 222.874130,228.925323 
	C223.316147,233.493103 217.133865,236.878708 213.162460,234.467453 
	C211.117737,233.225967 209.334137,231.560547 207.342667,230.220230 
	C206.928177,229.941299 205.645462,230.078156 205.558533,230.315186 
	C203.585144,235.696426 198.169586,232.729675 194.572067,234.607391 
	C189.831375,237.081741 183.807007,234.326889 177.859787,237.451920 
	C172.877991,240.069687 166.003555,239.141724 160.312027,242.704956 
	C156.883789,244.851212 151.781570,244.317261 147.434616,245.006729 
	C146.328217,245.182220 144.308273,245.334488 144.274628,245.659561 
	C143.888443,249.390778 141.086502,247.798843 139.295227,247.940170 
	C136.313232,248.175461 133.178574,247.501419 130.329010,248.162338 
	C125.400871,249.305389 125.845383,253.784546 125.875061,258.000610 
	C122.886574,258.000610 120.201324,257.671021 117.637772,258.088593 
	C114.782150,258.553741 111.453232,258.992249 109.377205,260.708618 
	C106.030441,263.475586 103.040062,266.218384 98.360390,266.061096 
	C97.575027,266.034668 96.468414,266.542328 96.014198,267.168671 
	C93.298149,270.914062 87.082481,270.305389 85.605751,275.575958 
	C85.537331,275.820129 84.731743,275.883240 84.259598,275.984680 
	C80.737679,276.741302 77.398407,277.655457 75.054916,280.856506 
	C74.259094,281.943542 72.495743,282.813934 71.119408,282.899811 
	C64.956818,283.284088 58.442028,281.699493 53.057014,287.912231 
	C52.983795,288.110260 52.811604,290.409943 51.869144,290.787659 
	C48.804138,292.015991 46.989677,294.283569 48.207954,296.966949 
	C49.349918,299.482208 47.812500,301.614166 48.397060,303.486053 
	C49.733250,307.764832 51.941715,311.771210 53.752468,315.791840 
	C58.185200,317.296600 58.204079,314.155579 58.175552,311.388885 
	C70.963615,308.757019 75.980415,306.300964 78.652687,293.230896 
	C84.939178,292.264587 91.225662,291.298279 97.709892,290.301575 
	C97.933502,289.085419 98.213562,287.562286 98.493622,286.039154 
	C101.536476,285.585297 103.606712,283.639282 105.979988,283.143341 
	C111.244461,282.043152 116.645515,281.477936 122.019142,281.046906 
	C129.776672,280.424591 129.974060,280.406982 131.989807,271.872253 
	C134.041367,273.274353 135.586273,274.757782 137.428101,275.442474 
	C138.710434,275.919189 140.470261,275.531830 141.888367,275.104401 
	C143.294312,274.680695 144.497833,273.206299 145.862793,273.096558 
	C149.998932,272.764069 154.308914,273.501587 158.289352,272.628540 
	C162.363663,271.734955 163.831787,272.142059 164.010559,276.366943 
	C164.100922,278.502747 163.529449,281.216003 164.608948,282.652069 
	C167.287262,286.215027 171.139572,289.088226 167.110031,294.024139 
	C166.895721,294.286682 166.996597,295.191589 167.263885,295.404602 
	C171.368301,298.675964 165.087021,300.889587 166.436829,303.845123 
	C160.426697,304.865082 162.491486,309.870575 161.868240,313.430695 
	C156.627579,314.341156 151.929733,317.830078 152.115143,321.137726 
	C152.248169,323.511047 152.789764,326.352478 154.250351,328.021118 
	C155.685959,329.661224 158.591919,329.944489 160.670166,331.140320 
	C161.197601,331.443817 161.484512,333.531464 161.115387,333.820587 
	C156.157562,337.703644 155.442139,343.616425 154.187378,349.021027 
	C153.490479,352.022797 153.385666,355.251404 156.623093,358.415009 
	C158.901123,360.641174 158.706009,365.782379 158.910431,369.659119 
	C159.243469,375.974396 158.968552,382.320343 159.032227,388.652527 
	C159.042938,389.719025 159.172379,390.989014 159.751160,391.809113 
	C162.045670,395.060181 165.705292,397.861542 166.646210,401.415405 
	C167.667984,405.274719 170.201385,407.149597 172.418213,409.713196 
	C175.708359,413.517975 179.402527,417.169861 181.759521,421.518402 
	C183.428162,424.596985 186.403656,427.688416 185.225571,432.042938 
	C185.045685,432.707855 187.008240,433.979919 188.019287,434.929169 
	C188.631271,435.503784 189.718323,435.885468 189.904175,436.547028 
	C190.737961,439.514893 190.929214,442.717255 192.100220,445.522858 
	C193.604889,449.127808 195.779327,452.460663 197.758011,455.856720 
	C198.596939,457.296600 199.671616,458.599152 200.851669,460.263947 
	C187.813171,461.174072 176.038925,461.995941 164.347031,462.812073 
	C163.990524,460.975677 163.696671,459.462097 163.402832,457.948517 
	C162.958405,458.025269 162.513992,458.102051 162.069580,458.178833 
	C162.069580,460.617523 162.069580,463.056213 162.069580,465.748505 
	C157.750397,466.581238 152.121017,466.007538 150.182617,468.410828 
	C146.886597,472.497375 143.461487,470.361511 140.169922,470.955109 
	C134.000351,472.067749 127.092545,468.416107 121.429611,474.549408 
	C121.119263,471.999786 120.890060,470.116791 120.653931,468.176880 
	C111.851028,467.064270 104.682358,470.169464 97.692818,474.841888 
	C99.367508,476.430542 104.350449,477.058411 98.675400,479.263184 
	C98.182571,479.454651 98.049477,480.991150 98.030426,481.908722 
	C97.957787,485.406952 98.325569,488.947784 97.898758,492.394745 
	C97.546585,495.238800 96.305023,497.972748 95.456352,500.759552 
	C93.997269,500.949890 92.596375,501.132629 90.073936,501.461700 
	C91.081940,506.286072 92.071205,510.714050 92.892357,515.172974 
	C93.090164,516.247070 92.864639,517.456604 92.597336,518.545776 
	C92.168732,520.292297 90.981514,522.033264 91.108711,523.700745 
	C91.449532,528.168518 92.317741,532.596130 92.952583,536.878723 
	C98.426186,537.040833 103.418053,535.071838 103.914276,532.534119 
	C104.999748,526.982971 109.046959,524.882446 113.468079,523.476501 
	C114.569733,520.270691 115.612175,517.237244 116.665031,514.173462 
	C119.104576,514.023193 121.508842,513.875183 123.137390,513.774841 
	C124.287521,508.386505 125.293350,503.674133 126.256218,499.163086 
	C129.042953,499.005951 132.698532,499.538269 133.082321,498.652710 
	C134.924438,494.402130 138.324753,496.550354 141.017441,495.999146 
	C141.966232,495.804932 142.914825,495.470825 143.867126,495.457489 
	C147.339157,495.408783 150.891113,495.020264 154.264282,495.610046 
	C157.841461,496.235474 161.369949,499.080414 164.708023,498.758881 
	C173.756180,497.887177 183.130905,501.992798 192.013870,496.243134 
	C195.271057,494.134857 200.249161,494.717743 204.428452,493.993378 
	C209.490067,493.116058 214.847015,495.851959 219.784210,491.279755 
	C222.104965,489.130554 226.920731,489.684875 230.600616,488.986450 
	C231.362778,488.841766 232.736603,488.621368 232.756058,488.356964 
	C233.049118,484.374634 237.862961,483.976013 238.741516,479.555908 
	C239.917450,473.639709 239.928741,468.481689 238.764893,462.594666 
	C237.760376,457.513672 233.830719,453.495758 234.753372,447.622528 
	C235.489014,442.939697 236.367233,437.635620 233.047607,433.082581 
	C231.810593,431.385956 230.364944,429.454926 230.117981,427.491943 
	C229.197144,420.172119 230.482361,412.855835 228.407700,405.335938 
	C226.954575,400.068848 224.983063,397.421356 220.472733,396.487030 
	C219.477432,389.917694 218.531738,383.675720 217.336197,375.784637 
	C220.663452,377.361725 222.482758,378.224091 224.851212,379.346710 
	C226.005142,377.061768 227.547760,374.007172 229.405396,370.328796 
	C231.455154,369.294281 234.425690,367.795044 237.729034,366.127838 
	C237.929535,365.066711 238.217377,363.543457 238.551590,361.774719 
	C241.163971,361.774719 243.443359,361.774719 245.726242,361.774719 
	C245.943329,360.045410 246.121078,358.629425 246.281372,357.352600 
	C248.699036,357.009735 252.158966,357.341248 252.625351,356.313843 
	C254.924103,351.249878 259.118500,352.135315 263.143158,351.971008 
	C264.727997,351.906281 266.766754,352.064209 267.793823,351.182739 
	C271.558960,347.951477 277.281494,348.063690 280.600616,352.102997 
	C280.863098,350.337585 281.092041,348.797791 281.388794,346.802094 
	C284.670685,347.054504 288.566132,346.215790 290.670288,347.782623 
	C293.830963,350.136200 297.721008,348.125824 301.105499,351.551453 
	C303.840576,354.319733 310.372040,353.686218 315.244446,353.860199 
	C318.072449,353.961151 320.941254,352.153778 323.806610,352.106323 
	C336.424103,351.897247 349.047058,352.016083 361.612213,352.016083 
	C362.345093,359.248840 364.055420,361.372223 369.812775,362.622833 
	C370.417816,369.457794 372.489471,371.292084 379.128113,369.899231 
	C382.176300,369.259705 385.674744,368.165283 387.739655,366.067230 
	C390.629333,363.131134 392.500031,359.381958 397.256439,358.782288 
	C399.119141,358.547424 401.098938,357.610901 402.599884,356.445801 
	C406.922974,353.089966 414.525177,352.970093 418.287781,356.334686 
	C418.772736,356.768311 420.238220,356.791687 420.762390,356.381927 
	C423.780334,354.022614 426.343445,350.883545 429.658875,349.158112 
	C433.004059,347.417145 437.046417,347.015747 440.703705,346.048523 
	C441.965576,341.888184 441.068787,338.547943 436.267700,336.964050 
	C434.603577,336.415070 433.116302,335.329895 432.647034,335.078400 
	C430.645660,335.514313 429.284393,336.189941 428.083618,335.973816 
	C426.667511,335.718994 425.447388,334.283447 424.040802,334.087097 
	C421.268494,333.700226 416.799683,334.852509 415.944061,333.511078 
	C414.034882,330.517975 411.808075,330.869629 409.427521,331.064087 
	C406.311279,331.318604 404.542419,330.020020 402.836700,327.526611 
	C402.208099,326.607697 399.115509,326.136261 398.252563,326.832123 
	C394.692017,329.703125 393.165771,329.704834 389.776184,326.913879 
	C388.967712,326.248169 385.732361,326.928406 385.109558,327.924835 
	C382.810059,331.603790 379.504211,331.294891 376.175140,330.877838 
	C372.957642,330.474731 369.792969,329.647217 366.606476,328.999390 
	C361.245758,327.909454 355.870239,326.884888 350.534088,325.685333 
	C348.477142,325.222931 345.790588,324.955750 344.636261,323.565582 
	C340.975494,319.156769 336.231354,319.019745 331.264648,318.979706 
	C329.966583,318.969208 327.639618,318.958221 327.533966,318.522949 
	C326.540070,314.428467 323.375641,316.344849 321.125031,316.049347 
	C319.156891,315.790894 316.882294,316.547913 315.178467,315.827057 
	C308.366516,312.945251 301.770599,312.838135 294.957275,315.789642 
	C293.967041,316.218567 292.250305,314.970459 290.101044,314.071136 
M596.800232,524.315308 
	C597.592407,523.462341 598.419067,522.638672 599.171692,521.752136 
	C610.423889,508.498383 611.082397,489.466675 600.759583,476.179077 
	C589.757263,462.016846 571.406921,457.744446 555.554321,465.654205 
	C539.992920,473.418671 532.202759,490.639832 536.973145,507.736145 
	C544.578064,534.991028 577.569031,542.096130 596.800232,524.315308 
M428.954865,474.597900 
	C415.399384,459.566437 393.664673,457.443481 378.180939,469.638580 
	C363.465302,481.228699 360.085938,503.088226 370.611816,518.600037 
	C379.319885,531.433044 394.942688,536.935730 411.230347,532.906616 
	C425.276855,529.432007 434.908630,516.672913 436.531921,499.003937 
	C429.435516,499.003937 422.374725,499.003937 415.257416,499.003937 
	C415.036255,500.162506 414.918610,501.151245 414.655426,502.099579 
	C412.296783,510.598846 406.564728,514.770325 398.599365,513.816284 
	C391.492218,512.965027 386.242279,507.025330 385.851685,499.393738 
	C385.415039,490.862091 390.022797,484.034149 397.496307,482.480927 
	C403.166351,481.302521 408.893646,482.362274 411.445251,487.638397 
	C414.173737,493.280151 417.970520,493.497223 422.958496,492.878662 
	C427.379944,492.330353 431.843842,492.124298 437.591553,491.662506 
	C434.652802,485.741699 432.027161,480.451752 428.954865,474.597900 
M441.093719,309.678589 
	C465.242340,317.028290 484.553619,296.875763 481.267944,276.160950 
	C478.941620,261.494537 466.686646,250.360123 451.805481,250.001434 
	C437.189575,249.649124 423.933929,260.057373 421.080719,274.126312 
	C417.997467,289.329529 426.013977,303.956299 441.093719,309.678589 
M665.177673,501.503448 
	C665.177673,511.590668 665.177673,521.677917 665.177673,531.723633 
	C672.490784,531.723633 679.076538,531.723633 686.130493,531.723633 
	C686.130493,525.705017 686.130493,519.960999 686.130493,514.217896 
	C688.533813,514.042542 690.466675,513.901550 692.497803,513.753357 
	C692.497803,507.390900 692.497803,501.326691 692.497803,495.170715 
	C690.241150,495.048645 688.303894,494.943848 686.006775,494.819611 
	C686.006775,492.540131 685.671082,490.500732 686.090454,488.630646 
	C686.632263,486.214783 687.179565,482.745392 688.825012,481.917786 
	C690.598572,481.025848 693.643799,482.662201 697.329834,483.451630 
	C701.476196,480.408813 706.807556,476.496338 712.122192,472.596161 
	C706.889221,464.339783 696.409790,460.249054 686.223511,462.294769 
	C675.713379,464.405548 667.400574,472.642792 666.011292,483.086182 
	C665.247437,488.828064 665.424683,494.695160 665.177673,501.503448 
M616.177673,504.500671 
	C616.177673,513.589478 616.177673,522.678284 616.177673,531.723694 
	C623.490784,531.723694 630.076477,531.723694 637.130371,531.723694 
	C637.130371,525.705139 637.130371,519.961121 637.130371,514.217834 
	C639.533630,514.042480 641.466492,513.901489 643.497925,513.753296 
	C643.497925,507.391205 643.497925,501.327026 643.497925,495.170990 
	C641.241455,495.048859 639.304199,494.944000 637.006775,494.819672 
	C637.006775,492.547943 636.671082,490.505035 637.090637,488.631226 
	C637.631592,486.215271 638.179077,482.745941 639.824524,481.918060 
	C641.597778,481.025848 644.643127,482.662018 648.330261,483.451324 
	C652.475708,480.409149 657.807129,476.496613 663.121826,472.596405 
	C657.891846,464.340881 647.411621,460.249176 637.224609,462.294495 
	C626.714722,464.404633 618.326172,472.634857 617.029602,483.086212 
	C616.193848,489.822754 616.424805,496.691589 616.177673,504.500671 
M355.168884,463.648590 
	C348.472015,463.648590 341.775146,463.648590 335.084473,463.648590 
	C335.084473,486.299286 335.084473,508.899048 335.084473,531.734497 
	C341.870117,531.734497 348.437408,531.734497 355.369690,531.734497 
	C355.369690,509.185303 355.369690,486.899048 355.168884,463.648590 
z"/>
<path fill="#FFFFFF" opacity="1.000000" stroke="none" 
	d="
M758.000000,145.531342 
	C757.346741,141.916031 756.547546,137.849274 756.064087,133.745316 
	C753.132141,108.852875 743.976440,86.290886 729.442688,66.109573 
	C705.801025,33.281101 674.212891,12.167651 634.339417,3.998963 
	C629.718628,3.052334 625.018005,2.495277 620.177246,1.378799 
	C665.928772,1.000000 711.857605,1.000000 758.000000,1.000000 
	C758.000000,49.020683 758.000000,97.041679 758.000000,145.531342 
z"/>
<path fill="#FFFFFF" opacity="1.000000" stroke="none" 
	d="
M621.468628,757.000000 
	C628.506104,755.336914 636.058838,753.858643 643.509460,751.976074 
	C665.455078,746.431091 684.752808,735.870728 702.170715,721.443115 
	C720.031006,706.649170 733.703308,688.729736 743.504333,667.872070 
	C749.871094,654.322876 754.362732,640.104431 755.997620,625.117065 
	C756.460022,620.877441 756.819214,616.626587 757.612915,612.190430 
	C758.000000,660.258240 758.000000,708.516479 758.000000,757.000000 
	C712.645996,757.000000 667.291687,757.000000 621.468628,757.000000 
z"/>
<path fill="#FFFFFF" opacity="1.000000" stroke="none" 
	d="
M138.531342,1.000000 
	C132.239609,2.335091 125.414101,3.406018 118.730751,5.053586 
	C96.493317,10.535515 76.345940,20.301804 58.586678,34.886299 
	C40.984894,49.341469 26.600370,66.455185 16.638327,86.954979 
	C8.419299,103.868011 2.799175,121.651756 1.383783,140.814911 
	C1.000000,94.406876 1.000000,47.813751 1.000000,1.000000 
	C46.687325,1.000000 92.375000,1.000000 138.531342,1.000000 
z"/>
<path fill="#FFFFFF" opacity="1.000000" stroke="none" 
	d="
M1.000000,617.468628 
	C1.998011,622.672424 2.890946,628.365662 4.013683,634.013306 
	C7.427364,651.184875 13.254513,667.543762 22.892662,682.158020 
	C29.694931,692.472229 36.864090,702.843628 45.491894,711.588806 
	C60.816044,727.121521 78.768257,739.263306 99.430359,747.019836 
	C111.802841,751.664429 124.380020,755.327148 137.818970,756.618774 
	C92.405563,757.000000 46.811119,757.000000 1.000000,757.000000 
	C1.000000,710.645996 1.000000,664.291687 1.000000,617.468628 
z"/>
<path fill="#FFFFFF" opacity="1.000000" stroke="none" 
	d="
M290.485413,314.284760 
	C292.250305,314.970459 293.967041,316.218567 294.957275,315.789642 
	C301.770599,312.838135 308.366516,312.945251 315.178467,315.827057 
	C316.882294,316.547913 319.156891,315.790894 321.125031,316.049347 
	C323.375641,316.344849 326.540070,314.428467 327.533966,318.522949 
	C327.639618,318.958221 329.966583,318.969208 331.264648,318.979706 
	C336.231354,319.019745 340.975494,319.156769 344.636261,323.565582 
	C345.790588,324.955750 348.477142,325.222931 350.534088,325.685333 
	C355.870239,326.884888 361.245758,327.909454 366.606476,328.999390 
	C369.792969,329.647217 372.957642,330.474731 376.175140,330.877838 
	C379.504211,331.294891 382.810059,331.603790 385.109558,327.924835 
	C385.732361,326.928406 388.967712,326.248169 389.776184,326.913879 
	C393.165771,329.704834 394.692017,329.703125 398.252563,326.832123 
	C399.115509,326.136261 402.208099,326.607697 402.836700,327.526611 
	C404.542419,330.020020 406.311279,331.318604 409.427521,331.064087 
	C411.808075,330.869629 414.034882,330.517975 415.944061,333.511078 
	C416.799683,334.852509 421.268494,333.700226 424.040802,334.087097 
	C425.447388,334.283447 426.667511,335.718994 428.083618,335.973816 
	C429.284393,336.189941 430.645660,335.514313 432.647034,335.078400 
	C433.116302,335.329895 434.603577,336.415070 436.267700,336.964050 
	C441.068787,338.547943 441.965576,341.888184 440.703705,346.048523 
	C437.046417,347.015747 433.004059,347.417145 429.658875,349.158112 
	C426.343445,350.883545 423.780334,354.022614 420.762390,356.381927 
	C420.238220,356.791687 418.772736,356.768311 418.287781,356.334686 
	C414.525177,352.970093 406.922974,353.089966 402.599884,356.445801 
	C401.098938,357.610901 399.119141,358.547424 397.256439,358.782288 
	C392.500031,359.381958 390.629333,363.131134 387.739655,366.067230 
	C385.674744,368.165283 382.176300,369.259705 379.128113,369.899231 
	C372.489471,371.292084 370.417816,369.457794 369.812775,362.622833 
	C364.055420,361.372223 362.345093,359.248840 361.612213,352.016083 
	C349.047058,352.016083 336.424103,351.897247 323.806610,352.106323 
	C320.941254,352.153778 318.072449,353.961151 315.244446,353.860199 
	C310.372040,353.686218 303.840576,354.319733 301.105499,351.551453 
	C297.721008,348.125824 293.830963,350.136200 290.670288,347.782623 
	C288.566132,346.215790 284.670685,347.054504 281.388794,346.802094 
	C281.092041,348.797791 280.863098,350.337585 280.600616,352.102997 
	C277.281494,348.063690 271.558960,347.951477 267.793823,351.182739 
	C266.766754,352.064209 264.727997,351.906281 263.143158,351.971008 
	C259.118500,352.135315 254.924103,351.249878 252.625351,356.313843 
	C252.158966,357.341248 248.699036,357.009735 246.281372,357.352600 
	C246.121078,358.629425 245.943329,360.045410 245.726242,361.774719 
	C243.443359,361.774719 241.163971,361.774719 238.551590,361.774719 
	C238.217377,363.543457 237.929535,365.066711 237.729034,366.127838 
	C234.425690,367.795044 231.455154,369.294281 229.405396,370.328796 
	C227.547760,374.007172 226.005142,377.061768 224.851212,379.346710 
	C222.482758,378.224091 220.663452,377.361725 217.336197,375.784637 
	C218.531738,383.675720 219.477432,389.917694 220.472733,396.487030 
	C224.983063,397.421356 226.954575,400.068848 228.407700,405.335938 
	C230.482361,412.855835 229.197144,420.172119 230.117981,427.491943 
	C230.364944,429.454926 231.810593,431.385956 233.047607,433.082581 
	C236.367233,437.635620 235.489014,442.939697 234.753372,447.622528 
	C233.830719,453.495758 237.760376,457.513672 238.764893,462.594666 
	C239.928741,468.481689 239.917450,473.639709 238.741516,479.555908 
	C237.862961,483.976013 233.049118,484.374634 232.756058,488.356964 
	C232.736603,488.621368 231.362778,488.841766 230.600616,488.986450 
	C226.920731,489.684875 222.104965,489.130554 219.784210,491.279755 
	C214.847015,495.851959 209.490067,493.116058 204.428452,493.993378 
	C200.249161,494.717743 195.271057,494.134857 192.013870,496.243134 
	C183.130905,501.992798 173.756180,497.887177 164.708023,498.758881 
	C161.369949,499.080414 157.841461,496.235474 154.264282,495.610046 
	C150.891113,495.020264 147.339157,495.408783 143.867126,495.457489 
	C142.914825,495.470825 141.966232,495.804932 141.017441,495.999146 
	C138.324753,496.550354 134.924438,494.402130 133.082321,498.652710 
	C132.698532,499.538269 129.042953,499.005951 126.256218,499.163086 
	C125.293350,503.674133 124.287521,508.386505 123.137390,513.774841 
	C121.508842,513.875183 119.104576,514.023193 116.665031,514.173462 
	C115.612175,517.237244 114.569733,520.270691 113.468079,523.476501 
	C109.046959,524.882446 104.999748,526.982971 103.914276,532.534119 
	C103.418053,535.071838 98.426186,537.040833 92.952583,536.878723 
	C92.317741,532.596130 91.449532,528.168518 91.108711,523.700745 
	C90.981514,522.033264 92.168732,520.292297 92.597336,518.545776 
	C92.864639,517.456604 93.090164,516.247070 92.892357,515.172974 
	C92.071205,510.714050 91.081940,506.286072 90.073936,501.461700 
	C92.596375,501.132629 93.997269,500.949890 95.456352,500.759552 
	C96.305023,497.972748 97.546585,495.238800 97.898758,492.394745 
	C98.325569,488.947784 97.957787,485.406952 98.030426,481.908722 
	C98.049477,480.991150 98.182571,479.454651 98.675400,479.263184 
	C104.350449,477.058411 99.367508,476.430542 97.692818,474.841888 
	C104.682358,470.169464 111.851028,467.064270 120.653931,468.176880 
	C120.890060,470.116791 121.119263,471.999786 121.429611,474.549408 
	C127.092545,468.416107 134.000351,472.067749 140.169922,470.955109 
	C143.461487,470.361511 146.886597,472.497375 150.182617,468.410828 
	C152.121017,466.007538 157.750397,466.581238 162.069580,465.748505 
	C162.069580,463.056213 162.069580,460.617523 162.069580,458.178833 
	C162.513992,458.102051 162.958405,458.025269 163.402832,457.948517 
	C163.696671,459.462097 163.990524,460.975677 164.347031,462.812073 
	C176.038925,461.995941 187.813171,461.174072 200.851669,460.263947 
	C199.671616,458.599152 198.596939,457.296600 197.758011,455.856720 
	C195.779327,452.460663 193.604889,449.127808 192.100220,445.522858 
	C190.929214,442.717255 190.737961,439.514893 189.904175,436.547028 
	C189.718323,435.885468 188.631271,435.503784 188.019287,434.929169 
	C187.008240,433.979919 185.045685,432.707855 185.225571,432.042938 
	C186.403656,427.688416 183.428162,424.596985 181.759521,421.518402 
	C179.402527,417.169861 175.708359,413.517975 172.418213,409.713196 
	C170.201385,407.149597 167.667984,405.274719 166.646210,401.415405 
	C165.705292,397.861542 162.045670,395.060181 159.751160,391.809113 
	C159.172379,390.989014 159.042938,389.719025 159.032227,388.652527 
	C158.968552,382.320343 159.243469,375.974396 158.910431,369.659119 
	C158.706009,365.782379 158.901123,360.641174 156.623093,358.415009 
	C153.385666,355.251404 153.490479,352.022797 154.187378,349.021027 
	C155.442139,343.616425 156.157562,337.703644 161.115387,333.820587 
	C161.484512,333.531464 161.197601,331.443817 160.670166,331.140320 
	C158.591919,329.944489 155.685959,329.661224 154.250351,328.021118 
	C152.789764,326.352478 152.248169,323.511047 152.115143,321.137726 
	C151.929733,317.830078 156.627579,314.341156 161.868240,313.430695 
	C162.491486,309.870575 160.426697,304.865082 166.436829,303.845123 
	C165.087021,300.889587 171.368301,298.675964 167.263885,295.404602 
	C166.996597,295.191589 166.895721,294.286682 167.110031,294.024139 
	C171.139572,289.088226 167.287262,286.215027 164.608948,282.652069 
	C163.529449,281.216003 164.100922,278.502747 164.010559,276.366943 
	C163.831787,272.142059 162.363663,271.734955 158.289352,272.628540 
	C154.308914,273.501587 149.998932,272.764069 145.862793,273.096558 
	C144.497833,273.206299 143.294312,274.680695 141.888367,275.104401 
	C140.470261,275.531830 138.710434,275.919189 137.428101,275.442474 
	C135.586273,274.757782 134.041367,273.274353 131.989807,271.872253 
	C129.974060,280.406982 129.776672,280.424591 122.019142,281.046906 
	C116.645515,281.477936 111.244461,282.043152 105.979988,283.143341 
	C103.606712,283.639282 101.536476,285.585297 98.493622,286.039154 
	C98.213562,287.562286 97.933502,289.085419 97.709892,290.301575 
	C91.225662,291.298279 84.939178,292.264587 78.652672,293.230927 
	C75.980415,306.300964 70.963615,308.757019 58.175552,311.388885 
	C58.204079,314.155579 58.185200,317.296600 53.752468,315.791840 
	C51.941715,311.771210 49.733250,307.764832 48.397060,303.486053 
	C47.812500,301.614166 49.349918,299.482208 48.207954,296.966949 
	C46.989677,294.283569 48.804138,292.015991 51.869144,290.787659 
	C52.811604,290.409943 52.983795,288.110260 53.057014,287.912231 
	C58.442028,281.699493 64.956818,283.284088 71.119408,282.899811 
	C72.495743,282.813934 74.259094,281.943542 75.054916,280.856506 
	C77.398407,277.655457 80.737679,276.741302 84.259598,275.984680 
	C84.731743,275.883240 85.537331,275.820129 85.605751,275.575958 
	C87.082481,270.305389 93.298149,270.914062 96.014198,267.168671 
	C96.468414,266.542328 97.575027,266.034668 98.360390,266.061096 
	C103.040062,266.218384 106.030441,263.475586 109.377205,260.708618 
	C111.453232,258.992249 114.782150,258.553741 117.637772,258.088593 
	C120.201324,257.671021 122.886574,258.000610 125.875061,258.000610 
	C125.845383,253.784546 125.400871,249.305389 130.329010,248.162338 
	C133.178574,247.501419 136.313232,248.175461 139.295227,247.940170 
	C141.086502,247.798843 143.888443,249.390778 144.274628,245.659561 
	C144.308273,245.334488 146.328217,245.182220 147.434616,245.006729 
	C151.781570,244.317261 156.883789,244.851212 160.312027,242.704956 
	C166.003555,239.141724 172.877991,240.069687 177.859787,237.451920 
	C183.807007,234.326889 189.831375,237.081741 194.572067,234.607391 
	C198.169586,232.729675 203.585144,235.696426 205.558533,230.315186 
	C205.645462,230.078156 206.928177,229.941299 207.342667,230.220230 
	C209.334137,231.560547 211.117737,233.225967 213.162460,234.467453 
	C217.133865,236.878708 223.316147,233.493103 222.874130,228.925323 
	C222.558838,225.667099 225.400009,221.224274 220.124176,219.321579 
	C220.494843,218.560760 220.802414,217.759918 221.252838,217.049683 
	C221.767227,216.238525 223.023941,215.389099 222.902420,214.760269 
	C221.167526,205.782730 228.111526,203.129593 233.921997,200.226349 
	C238.175705,198.100937 242.755051,195.522034 247.934143,197.039322 
	C251.306595,198.027328 254.583328,199.353043 257.874664,200.602005 
	C259.403107,201.181992 260.864258,201.939392 263.640747,203.199478 
	C264.317566,207.376495 265.359497,212.547516 265.863556,217.770447 
	C265.995636,219.138947 263.908173,220.628128 263.797546,222.132294 
	C263.534851,225.704041 262.389374,230.812988 264.227722,232.603439 
	C268.048492,236.324692 265.453796,237.254517 263.120514,239.019760 
	C264.312378,240.371429 269.668457,241.259094 263.442505,243.393005 
	C261.914429,243.916748 263.722412,253.487549 264.607330,255.106186 
	C265.752502,257.200806 265.993378,259.789825 266.614624,262.132141 
	C271.532166,263.981232 276.839478,265.846313 282.038147,267.976501 
	C285.653961,269.458130 289.264496,271.060699 292.618805,273.046143 
	C297.220184,275.769714 302.048798,276.427887 307.259064,276.132965 
	C308.550049,276.059875 310.635345,277.073761 311.136292,278.153595 
	C313.800751,283.896942 318.699585,288.652924 318.996277,295.453247 
	C319.133331,298.593842 318.145325,300.804047 314.539703,301.040314 
	C313.696167,301.095612 312.483002,301.436951 312.133301,302.045288 
	C310.824707,304.321625 309.998932,305.814178 308.738617,301.958588 
	C308.519684,301.288849 306.219482,301.092682 304.866730,301.041229 
	C301.540344,300.914673 298.205902,300.999817 294.517242,300.999817 
	C294.220947,299.451050 293.929565,297.928101 293.564697,296.020905 
	C287.802795,296.020905 282.020111,296.020905 276.237396,296.020905 
	C275.422943,295.050262 274.608521,294.079590 273.794067,293.108948 
	C275.254517,292.498291 276.714966,291.887665 278.012207,291.345276 
	C278.096588,291.363556 277.231445,290.937378 276.435852,291.041748 
	C270.485626,291.822571 265.554565,289.797913 260.583832,286.585571 
	C258.099396,284.980011 254.052032,284.878571 251.882141,288.096893 
	C248.672501,292.857391 246.705078,298.751282 242.703705,302.596344 
	C238.922836,306.229492 240.612473,309.727173 239.935684,313.991638 
	C244.846619,313.991638 249.451401,314.055054 254.050476,313.921570 
	C254.720306,313.902130 255.290985,312.669342 256.032898,312.474030 
	C257.608765,312.059082 259.917236,311.163147 260.777588,311.867126 
	C264.234772,314.695953 264.973877,314.765350 268.251953,311.870117 
	C268.799927,311.386139 270.838318,312.589630 272.408752,313.082672 
	C274.233459,310.171600 280.835388,309.965240 284.190308,312.895966 
	C285.501862,314.041687 288.092804,313.722900 290.485413,314.284760 
z"/>
<path fill="#FEFDFD" opacity="1.000000" stroke="none" 
	d="
M596.542297,524.558105 
	C577.569031,542.096130 544.578064,534.991028 536.973145,507.736145 
	C532.202759,490.639832 539.992920,473.418671 555.554321,465.654205 
	C571.406921,457.744446 589.757263,462.016846 600.759583,476.179077 
	C611.082397,489.466675 610.423889,508.498383 599.171692,521.752136 
	C598.419067,522.638672 597.592407,523.462341 596.542297,524.558105 
M578.474731,483.766296 
	C577.243103,483.293365 576.048157,482.650879 574.773804,482.375671 
	C567.748474,480.858459 560.547485,485.092255 557.821106,492.255005 
	C554.943054,499.816498 558.228577,508.571747 565.337402,512.284119 
	C571.786682,515.651978 579.281311,513.734314 583.814270,507.556244 
	C589.375854,499.976257 587.538391,490.693878 578.474731,483.766296 
z"/>
<path fill="#FEFDFD" opacity="1.000000" stroke="none" 
	d="
M429.178192,474.879883 
	C432.027161,480.451752 434.652802,485.741699 437.591553,491.662506 
	C431.843842,492.124298 427.379944,492.330353 422.958496,492.878662 
	C417.970520,493.497223 414.173737,493.280151 411.445251,487.638397 
	C408.893646,482.362274 403.166351,481.302521 397.496307,482.480927 
	C390.022797,484.034149 385.415039,490.862091 385.851685,499.393738 
	C386.242279,507.025330 391.492218,512.965027 398.599365,513.816284 
	C406.564728,514.770325 412.296783,510.598846 414.655426,502.099579 
	C414.918610,501.151245 415.036255,500.162506 415.257416,499.003937 
	C422.374725,499.003937 429.435516,499.003937 436.531921,499.003937 
	C434.908630,516.672913 425.276855,529.432007 411.230347,532.906616 
	C394.942688,536.935730 379.319885,531.433044 370.611816,518.600037 
	C360.085938,503.088226 363.465302,481.228699 378.180939,469.638580 
	C393.664673,457.443481 415.399384,459.566437 429.178192,474.879883 
z"/>
<path fill="#FEFEFE" opacity="1.000000" stroke="none" 
	d="
M440.731873,309.499939 
	C426.013977,303.956299 417.997467,289.329529 421.080719,274.126312 
	C423.933929,260.057373 437.189575,249.649124 451.805481,250.001434 
	C466.686646,250.360123 478.941620,261.494537 481.267944,276.160950 
	C484.553619,296.875763 465.242340,317.028290 440.731873,309.499939 
z"/>
<path fill="#FEFCFC" opacity="1.000000" stroke="none" 
	d="
M665.177612,501.004639 
	C665.424683,494.695160 665.247437,488.828064 666.011292,483.086182 
	C667.400574,472.642792 675.713379,464.405548 686.223511,462.294769 
	C696.409790,460.249054 706.889221,464.339783 712.122192,472.596161 
	C706.807556,476.496338 701.476196,480.408813 697.329834,483.451630 
	C693.643799,482.662201 690.598572,481.025848 688.825012,481.917786 
	C687.179565,482.745392 686.632263,486.214783 686.090454,488.630646 
	C685.671082,490.500732 686.006775,492.540131 686.006775,494.819611 
	C688.303894,494.943848 690.241150,495.048645 692.497803,495.170715 
	C692.497803,501.326691 692.497803,507.390900 692.497803,513.753357 
	C690.466675,513.901550 688.533813,514.042542 686.130493,514.217896 
	C686.130493,519.960999 686.130493,525.705017 686.130493,531.723633 
	C679.076538,531.723633 672.490784,531.723633 665.177673,531.723633 
	C665.177673,521.677917 665.177673,511.590668 665.177612,501.004639 
z"/>
<path fill="#FEFCFC" opacity="1.000000" stroke="none" 
	d="
M616.177673,504.000916 
	C616.424805,496.691589 616.193848,489.822754 617.029602,483.086212 
	C618.326172,472.634857 626.714722,464.404633 637.224609,462.294495 
	C647.411621,460.249176 657.891846,464.340881 663.121826,472.596405 
	C657.807129,476.496613 652.475708,480.409149 648.330261,483.451324 
	C644.643127,482.662018 641.597778,481.025848 639.824524,481.918060 
	C638.179077,482.745941 637.631592,486.215271 637.090637,488.631226 
	C636.671082,490.505035 637.006775,492.547943 637.006775,494.819672 
	C639.304199,494.944000 641.241455,495.048859 643.497925,495.170990 
	C643.497925,501.327026 643.497925,507.391205 643.497925,513.753296 
	C641.466492,513.901489 639.533630,514.042480 637.130371,514.217834 
	C637.130371,519.961121 637.130371,525.705139 637.130371,531.723694 
	C630.076477,531.723694 623.490784,531.723694 616.177673,531.723694 
	C616.177673,522.678284 616.177673,513.589478 616.177673,504.000916 
z"/>
<path fill="#FEFDFD" opacity="1.000000" stroke="none" 
	d="
M288.124695,492.754150 
	C289.186127,491.701538 290.535919,490.816742 291.262085,489.569000 
	C295.863159,481.663025 300.280365,473.650024 304.886719,465.747223 
	C305.540680,464.625244 306.863678,463.170685 307.926788,463.128662 
	C314.184113,462.881317 320.456207,463.006989 327.571808,463.006989 
	C322.102661,472.621277 317.197083,481.626190 311.882385,490.382751 
	C309.997009,493.489166 310.013977,495.883881 311.600922,499.046722 
	C316.944244,509.696350 321.986755,520.496887 327.508881,531.998901 
	C319.891296,531.998901 312.977692,532.135803 306.081024,531.855591 
	C305.012146,531.812134 303.604309,530.037109 303.060516,528.761414 
	C299.217590,519.746582 295.596497,510.637604 291.812195,501.597321 
	C291.017181,499.698120 289.838989,497.959320 288.453125,495.760559 
	C288.087524,494.501068 288.106110,493.627625 288.124695,492.754150 
z"/>
<path fill="#FEFDFD" opacity="1.000000" stroke="none" 
	d="
M467.124695,492.754150 
	C468.186157,491.701538 469.535919,490.816742 470.262085,489.569000 
	C474.863159,481.663025 479.280334,473.650024 483.886719,465.747253 
	C484.540710,464.625305 485.863708,463.170715 486.926819,463.128693 
	C493.184113,462.881317 499.456207,463.006989 506.571777,463.006989 
	C501.102631,472.621246 496.197021,481.626129 490.882355,490.382751 
	C488.996948,493.489136 489.013947,495.883911 490.600891,499.046753 
	C495.944214,509.696350 500.986755,520.496887 506.508881,531.998901 
	C498.891296,531.998901 491.977692,532.135803 485.081024,531.855591 
	C484.012146,531.812134 482.604309,530.037109 482.060516,528.761414 
	C478.217590,519.746643 474.596497,510.637604 470.812225,501.597321 
	C470.017181,499.698120 468.838989,497.959320 467.453125,495.760559 
	C467.087494,494.501068 467.106079,493.627625 467.124695,492.754150 
z"/>
<path fill="#FFFFFF" opacity="1.000000" stroke="none" 
	d="
M288.242493,492.314392 
	C288.106110,493.627625 288.087524,494.501068 288.096802,495.810486 
	C288.202850,507.438538 288.280975,518.630676 288.200714,530.483521 
	C288.042328,531.144287 287.991730,531.596741 287.991730,531.596741 
	C281.548035,531.596741 275.104309,531.596741 268.262207,531.596741 
	C268.262207,509.038055 268.262207,486.261017 268.262207,463.057343 
	C274.583069,463.057343 280.849792,463.057343 287.580566,463.459473 
	C288.044647,463.861603 288.118042,464.315063 288.118042,464.315063 
	C288.198792,473.501587 288.279572,482.688141 288.242493,492.314392 
z"/>
<path fill="#FFFFFF" opacity="1.000000" stroke="none" 
	d="
M355.269287,464.130676 
	C355.369690,486.899048 355.369690,509.185303 355.369690,531.734497 
	C348.437408,531.734497 341.870117,531.734497 335.084473,531.734497 
	C335.084473,508.899048 335.084473,486.299286 335.084473,463.648590 
	C341.775146,463.648590 348.472015,463.648590 355.269287,464.130676 
z"/>
<path fill="#FFFFFF" opacity="1.000000" stroke="none" 
	d="
M467.242523,492.314392 
	C467.106079,493.627625 467.087494,494.501068 467.096802,495.810486 
	C467.202850,507.438538 467.280975,518.630615 467.200714,530.483521 
	C467.042328,531.144287 466.991730,531.596741 466.991730,531.596741 
	C460.548035,531.596741 454.104309,531.596741 447.262207,531.596741 
	C447.262207,509.038055 447.262207,486.261017 447.262207,463.057343 
	C453.583069,463.057343 459.849792,463.057343 466.580566,463.459473 
	C467.044647,463.861603 467.118042,464.315063 467.118042,464.315063 
	C467.198822,473.501587 467.279572,482.688141 467.242523,492.314392 
z"/>
<path fill="#FEFDFD" opacity="1.000000" stroke="none" 
	d="
M288.234741,464.205658 
	C288.118042,464.315063 288.044647,463.861603 288.019501,463.633301 
	C288.344604,463.474792 288.463623,463.705200 288.234741,464.205658 
z"/>
<path fill="#FEFDFD" opacity="1.000000" stroke="none" 
	d="
M467.234741,464.205658 
	C467.118042,464.315063 467.044647,463.861603 467.019501,463.633301 
	C467.344604,463.474792 467.463623,463.705200 467.234741,464.205658 
z"/>
<path fill="#FEFDFD" opacity="1.000000" stroke="none" 
	d="
M288.144714,531.562134 
	C287.991730,531.596741 288.042328,531.144287 288.080261,530.919067 
	C288.394775,530.913391 288.454620,531.191284 288.144714,531.562134 
z"/>
<path fill="#FEFDFD" opacity="1.000000" stroke="none" 
	d="
M467.144714,531.562134 
	C466.991730,531.596741 467.042328,531.144287 467.080261,530.919067 
	C467.394775,530.913391 467.454620,531.191284 467.144714,531.562134 
z"/>
<path fill="#A93B3D" opacity="1.000000" stroke="none" 
	d="
M578.820923,483.923401 
	C587.538391,490.693878 589.375854,499.976257 583.814270,507.556244 
	C579.281311,513.734314 571.786682,515.651978 565.337402,512.284119 
	C558.228577,508.571747 554.943054,499.816498 557.821106,492.255005 
	C560.547485,485.092255 567.748474,480.858459 574.773804,482.375671 
	C576.048157,482.650879 577.243103,483.293365 578.820923,483.923401 
z"/>
</svg>